<svg width="24" height="24" viewBox="0 0 24 24" fill="none" xmlns="http://www.w3.org/2000/svg">
<path d="M15.83 10.997C15.5992 10.997 15.3736 11.0654 15.1817 11.1937C14.9897 11.3219 14.8402 11.5042 14.7518 11.7174C14.6635 11.9306 14.6404 12.1653 14.6854 12.3917C14.7305 12.618 14.8416 12.826 15.0048 12.9892C15.168 13.1524 15.376 13.2635 15.6023 13.3086C15.8287 13.3536 16.0634 13.3305 16.2766 13.2422C16.4898 13.1538 16.6721 13.0043 16.8003 12.8123C16.9286 12.6204 16.997 12.3948 16.997 12.164C16.997 11.8545 16.8741 11.5577 16.6552 11.3388C16.4363 11.1199 16.1395 10.997 15.83 10.997V10.997ZM9.33 12.164C9.33 11.9331 9.26154 11.7075 9.13326 11.5155C9.00498 11.3236 8.82267 11.174 8.60937 11.0857C8.39607 10.9974 8.16137 10.9744 7.93497 11.0195C7.70856 11.0646 7.50063 11.1758 7.33746 11.3392C7.17429 11.5025 7.06322 11.7105 7.01831 11.9369C6.97339 12.1634 6.99664 12.3981 7.08512 12.6113C7.17361 12.8245 7.32334 13.0067 7.51538 13.1348C7.70743 13.2629 7.93315 13.3312 8.164 13.331C8.47334 13.3307 8.76991 13.2077 8.98855 12.9888C9.20719 12.77 9.33 12.4733 9.33 12.164V12.164ZM14.493 15.404C14.1748 15.7462 13.7896 16.0193 13.3613 16.2062C12.933 16.3932 12.4708 16.49 12.0035 16.4906C11.5362 16.4913 11.0738 16.3958 10.645 16.21C10.2162 16.0243 9.83018 15.7523 9.511 15.411C9.34445 15.2045 9.10269 15.0727 8.83892 15.0444C8.57515 15.0162 8.31098 15.0939 8.10451 15.2605C7.89803 15.427 7.76618 15.6688 7.73796 15.9326C7.70974 16.1963 7.78745 16.4605 7.95401 16.667C8.46045 17.2404 9.083 17.6995 9.78037 18.014C10.4777 18.3285 11.234 18.4911 11.999 18.4911C12.764 18.4911 13.5203 18.3285 14.2176 18.014C14.915 17.6995 15.5376 17.2404 16.044 16.667C16.204 16.4607 16.2769 16.2001 16.2473 15.9407C16.2177 15.6814 16.0878 15.4439 15.8854 15.279C15.6831 15.1141 15.4243 15.0349 15.1643 15.0582C14.9043 15.0816 14.6637 15.2057 14.494 15.404H14.493ZM12 0.502991C9.72552 0.502991 7.50211 1.17745 5.61095 2.44109C3.71978 3.70473 2.2458 5.50078 1.37539 7.60213C0.504983 9.70348 0.277244 12.0157 0.720974 14.2465C1.1647 16.4773 2.25997 18.5264 3.86828 20.1347C5.47658 21.743 7.52568 22.8383 9.75647 23.282C11.9872 23.7258 14.2995 23.498 16.4009 22.6276C18.5022 21.7572 20.2983 20.2832 21.5619 18.392C22.8255 16.5009 23.5 14.2775 23.5 12.003C23.4966 8.95406 22.2839 6.03099 20.1279 3.87506C17.972 1.71914 15.0489 0.506432 12 0.502991V0.502991ZM12 21.503C10.1211 21.503 8.28435 20.9458 6.72209 19.902C5.15982 18.8581 3.94218 17.3744 3.22315 15.6385C2.50412 13.9026 2.31599 11.9925 2.68255 10.1496C3.0491 8.30681 3.95389 6.61408 5.28249 5.28548C6.61109 3.95688 8.30383 3.05209 10.1466 2.68553C11.9895 2.31897 13.8996 2.5071 15.6355 3.22614C17.3714 3.94517 18.8551 5.16281 19.899 6.72507C20.9428 8.28734 21.5 10.1241 21.5 12.003C21.4974 14.5217 20.4956 16.9366 18.7146 18.7176C16.9336 20.4986 14.5187 21.5003 12 21.503Z" fill="#262626"/>
</svg>
